<svg xmlns="http://www.w3.org/2000/svg" xmlns:xlink="http://www.w3.org/1999/xlink" viewBox="0 0 941.62 860.83"><defs><style>.cls-1{fill:url(#linear-gradient);}.cls-2{fill:url(#linear-gradient-2);}.cls-3{fill:url(#linear-gradient-3);}.cls-4{fill:url(#linear-gradient-4);}.cls-5{fill:#961000;}.cls-6{fill:#fff;}.cls-7{fill:url(#linear-gradient-5);}.cls-8{fill:url(#linear-gradient-6);}</style><linearGradient id="linear-gradient" x1="157.14" y1="428.72" x2="941.62" y2="428.72" gradientUnits="userSpaceOnUse"><stop offset="0" stop-color="#fab638"/><stop offset="1" stop-color="#fdd536"/></linearGradient><linearGradient id="linear-gradient-2" x1="157.14" y1="469.08" x2="883.6" y2="469.08" gradientUnits="userSpaceOnUse"><stop offset="0" stop-color="#f5892b"/><stop offset="0.71" stop-color="#f9aa2a"/><stop offset="1" stop-color="#fbb929"/></linearGradient><linearGradient id="linear-gradient-3" x1="157.14" y1="523.53" x2="811.2" y2="523.53" gradientUnits="userSpaceOnUse"><stop offset="0" stop-color="#ef6723"/><stop offset="0.64" stop-color="#f68822"/><stop offset="1" stop-color="#fa9d21"/></linearGradient><linearGradient id="linear-gradient-4" x1="157.14" y1="593.45" x2="653.15" y2="593.45" gradientUnits="userSpaceOnUse"><stop offset="0" stop-color="#e42508"/><stop offset="1" stop-color="#f04413"/></linearGradient><linearGradient id="linear-gradient-5" x1="59.55" y1="397.05" x2="461.12" y2="397.05" xlink:href="#linear-gradient-4"/><linearGradient id="linear-gradient-6" x1="6.95" y1="537.63" x2="465.98" y2="537.63" xlink:href="#linear-gradient-4"/></defs><g id="Layer_2" data-name="Layer 2"><g id="Layer_3" data-name="Layer 3"><path class="cls-1" d="M157.14,428.72V158.21c0-121.61,131.64-197.61,237-136.81L628.37,156.65,862.63,291.91c105.32,60.8,105.32,212.82,0,273.62L628.37,700.78,394.1,836c-105.32,60.8-237-15.2-237-136.82Z"/><path class="cls-2" d="M811.42,344.07,597.35,220.48,383.28,96.88C287,41.32,157.14,110.77,157.14,221.9V716.27c0,83.34,77.26,143.24,151.69,144.55a151.24,151.24,0,0,0,23.86-1.61,144.76,144.76,0,0,0,50.59-17.92L597.35,717.7,811.42,594.1C907.66,538.54,907.66,399.63,811.42,344.07Z"/><path class="cls-3" d="M748.88,416.6,564,309.86,379.1,203.11c-83.12-48-222,12-222,108V524.58l.19,198.9c-.19,75.62,79.51,128.45,127.08,135.06,33.6,5.89,69.79.71,103.27-18.61l229-132.19,145.5-84C831.7,571.22,827.31,461.88,748.88,416.6Z"/><path class="cls-4" d="M157.14,592.39V493.13c0-124.74,135-202.71,243.07-140.34l86,49.63,86,49.63c108,62.37,108,218.3,0,280.68l-86,49.62-86,49.63C288.32,897.2,160.34,819.79,157.14,720.25Z"/><path class="cls-5" d="M461.12,495.15s-190.82-9.18-304,46.72V499.14S348.65,461.07,461.12,495.15Z"/><path class="cls-6" d="M459,453.31l25.9,157.47,99.53-101.57,130.88,22.84L650.57,411.73l64.76-120L577,314.25,481.51,215.4,459,368.78s-219.51-8.86-399.47,70.9c-47.74,24.2-79.52,94.65-45,136,0-7.64-7.55-52.17,13.69-74.67C91.59,431.5,319.27,426.73,459,453.31Z"/><path class="cls-7" d="M459,368.78l2.1-14.36s-275.69-1.09-401.57,85.26C239.51,359.92,459,368.78,459,368.78Z"/><path class="cls-8" d="M28.19,501c-62.25,68.28,26,126.69,89.25,135.87-.51-.26-131.75-67.35-23.81-119.06C201.8,466,466,495.66,466,495.66h0l-7-42.35C319.27,426.73,91.59,431.5,28.19,501Z"/></g></g></svg>